<svg width="359" height="551" viewBox="0 0 359 551" fill="none" xmlns="http://www.w3.org/2000/svg">
<path d="M21.5408 33.912C21.5408 36.936 19.8608 38.904 16.1168 38.904H10.5008V29.064H16.1168C19.8608 29.064 21.5408 30.936 21.5408 33.912ZM3.78075 23.496V57H10.5008V43.944H13.6688L21.0608 57H28.8368L20.8208 43.416C26.1968 41.976 28.4528 37.848 28.4528 33.768C28.4528 28.152 24.4208 23.496 16.3568 23.496H3.78075ZM45.9548 35.496C49.4108 35.496 52.1948 37.704 52.2908 41.208H39.6668C40.1948 37.56 42.7388 35.496 45.9548 35.496ZM58.5788 48.648H51.3308C50.4668 50.424 48.8828 51.864 46.0028 51.864C42.6428 51.864 39.9548 49.656 39.6188 45.72H59.0588C59.2028 44.856 59.2508 43.992 59.2508 43.128C59.2508 35.208 53.8268 29.976 46.1468 29.976C38.2747 29.976 32.8027 35.304 32.8027 43.704C32.8027 52.056 38.4188 57.432 46.1468 57.432C52.7228 57.432 57.1388 53.544 58.5788 48.648ZM62.4277 43.608C62.4277 51.912 67.8038 57.432 74.5718 57.432C78.7478 57.432 81.7718 55.368 83.3558 53.064V57.192C83.3558 62.136 80.4758 64.248 76.7798 64.248C73.4198 64.248 70.9238 62.664 70.2518 60.264H63.5798C64.2518 66.36 69.4838 70.104 76.9718 70.104C85.7078 70.104 90.1238 64.392 90.1238 57.192V30.408H83.3558V34.2C81.7718 31.896 78.7478 29.976 74.5718 29.976C67.8038 29.976 62.4277 35.304 62.4277 43.608ZM83.3558 43.704C83.3558 48.744 79.9958 51.528 76.2998 51.528C72.6998 51.528 69.2918 48.648 69.2918 43.608C69.2918 38.568 72.6998 35.88 76.2998 35.88C79.9958 35.88 83.3558 38.664 83.3558 43.704ZM96.687 57H103.407V30.408H96.687V57ZM100.095 27.24C102.447 27.24 104.223 25.512 104.223 23.304C104.223 21.096 102.447 19.368 100.095 19.368C97.695 19.368 95.967 21.096 95.967 23.304C95.967 25.512 97.695 27.24 100.095 27.24ZM130.686 49.416C130.494 39.672 115.758 42.696 115.758 37.848C115.758 36.312 117.054 35.304 119.55 35.304C122.19 35.304 123.822 36.696 124.014 38.76H130.446C130.062 33.48 126.174 29.976 119.742 29.976C113.166 29.976 109.23 33.528 109.23 37.944C109.23 47.688 124.254 44.664 124.254 49.416C124.254 50.952 122.814 52.152 120.174 52.152C117.486 52.152 115.614 50.616 115.374 48.6H108.606C108.894 53.544 113.55 57.432 120.222 57.432C126.702 57.432 130.686 53.976 130.686 49.416ZM137.259 48.744C137.259 54.84 140.667 57 145.755 57H149.979V51.336H146.859C144.747 51.336 144.027 50.568 144.027 48.792V35.928H149.979V30.408H144.027V23.832H137.259V30.408H134.091V35.928H137.259V48.744ZM166.236 35.496C169.692 35.496 172.476 37.704 172.572 41.208H159.948C160.476 37.56 163.02 35.496 166.236 35.496ZM178.86 48.648H171.612C170.748 50.424 169.164 51.864 166.284 51.864C162.924 51.864 160.236 49.656 159.9 45.72H179.34C179.484 44.856 179.532 43.992 179.532 43.128C179.532 35.208 174.108 29.976 166.428 29.976C158.556 29.976 153.084 35.304 153.084 43.704C153.084 52.056 158.7 57.432 166.428 57.432C173.004 57.432 177.42 53.544 178.86 48.648ZM191.157 43.752C191.157 38.616 193.557 37.08 197.541 37.08H199.317V30.024C195.621 30.024 192.837 31.8 191.157 34.536V30.408H184.437V57H191.157V43.752Z" fill="white"/>
<rect y="237" width="350" height="44" rx="5" fill="#18181C"/>
<path d="M36.036 254.13L32.802 260.262V264H31.514V260.262L28.266 254.13H29.75L32.172 258.904L34.58 254.13H36.036ZM40.8068 256.216C41.5442 256.216 42.2022 256.375 42.7808 256.692C43.3688 257.009 43.8262 257.467 44.1528 258.064C44.4888 258.661 44.6568 259.361 44.6568 260.164C44.6568 260.967 44.4888 261.667 44.1528 262.264C43.8262 262.852 43.3688 263.305 42.7808 263.622C42.2022 263.939 41.5442 264.098 40.8068 264.098C40.0695 264.098 39.4068 263.939 38.8188 263.622C38.2402 263.305 37.7828 262.852 37.4468 262.264C37.1108 261.667 36.9428 260.967 36.9428 260.164C36.9428 259.361 37.1108 258.661 37.4468 258.064C37.7828 257.467 38.2402 257.009 38.8188 256.692C39.4068 256.375 40.0695 256.216 40.8068 256.216ZM40.8068 257.336C40.3495 257.336 39.9248 257.439 39.5328 257.644C39.1502 257.849 38.8375 258.167 38.5948 258.596C38.3615 259.016 38.2448 259.539 38.2448 260.164C38.2448 260.78 38.3615 261.303 38.5948 261.732C38.8375 262.152 39.1502 262.465 39.5328 262.67C39.9248 262.875 40.3495 262.978 40.8068 262.978C41.2642 262.978 41.6842 262.875 42.0668 262.67C42.4588 262.465 42.7715 262.152 43.0048 261.732C43.2475 261.303 43.3688 260.78 43.3688 260.164C43.3688 259.539 43.2475 259.016 43.0048 258.596C42.7715 258.167 42.4588 257.849 42.0668 257.644C41.6842 257.439 41.2642 257.336 40.8068 257.336ZM53.1489 256.314V264H51.8749V262.194C51.6789 262.819 51.3289 263.3 50.8249 263.636C50.3303 263.963 49.7516 264.126 49.0889 264.126C48.2023 264.126 47.4836 263.841 46.9329 263.272C46.3823 262.693 46.1069 261.867 46.1069 260.794V256.314H47.3809V260.668C47.3809 261.433 47.5769 262.026 47.9689 262.446C48.3609 262.857 48.8929 263.062 49.5649 263.062C50.2649 263.062 50.8249 262.838 51.2449 262.39C51.6649 261.933 51.8749 261.27 51.8749 260.402V256.314H53.1489ZM56.464 257.868C56.716 257.336 57.0846 256.925 57.57 256.636C58.0553 256.337 58.634 256.188 59.306 256.188V257.574H58.914C58.1953 257.574 57.6073 257.761 57.15 258.134C56.6926 258.498 56.464 259.105 56.464 259.954V264H55.19V256.314H56.464V257.868ZM65.296 255.166V258.54H69.048V259.52H65.296V262.964H69.468V264H64.022V254.13H69.468V255.166H65.296ZM80.554 256.188C81.45 256.188 82.1687 256.477 82.71 257.056C83.2607 257.625 83.536 258.451 83.536 259.534V264H82.262V259.646C82.262 258.89 82.0754 258.311 81.702 257.91C81.338 257.509 80.834 257.308 80.19 257.308C79.518 257.308 78.9767 257.532 78.566 257.98C78.1647 258.419 77.964 259.067 77.964 259.926V264H76.69V259.646C76.69 258.89 76.5034 258.311 76.13 257.91C75.7567 257.509 75.2527 257.308 74.618 257.308C73.9367 257.308 73.3907 257.532 72.98 257.98C72.5787 258.419 72.378 259.067 72.378 259.926V264H71.104V256.314H72.378V258.064C72.5647 257.457 72.896 256.995 73.372 256.678C73.8574 256.351 74.4127 256.188 75.038 256.188C75.6914 256.188 76.256 256.356 76.732 256.692C77.2174 257.019 77.5627 257.504 77.768 258.148C77.9827 257.523 78.342 257.042 78.846 256.706C79.35 256.361 79.9194 256.188 80.554 256.188ZM88.6642 256.216C89.4109 256.216 90.0409 256.403 90.5542 256.776C91.0769 257.149 91.4409 257.649 91.6462 258.274V256.314H92.9202V264H91.6462V262.04C91.4409 262.665 91.0769 263.165 90.5542 263.538C90.0409 263.911 89.4109 264.098 88.6642 264.098C87.9829 264.098 87.3762 263.939 86.8442 263.622C86.3122 263.305 85.8922 262.852 85.5842 262.264C85.2855 261.667 85.1362 260.967 85.1362 260.164C85.1362 259.361 85.2855 258.661 85.5842 258.064C85.8922 257.467 86.3122 257.009 86.8442 256.692C87.3762 256.375 87.9829 256.216 88.6642 256.216ZM89.0282 257.35C88.2442 257.35 87.6142 257.602 87.1382 258.106C86.6715 258.601 86.4382 259.287 86.4382 260.164C86.4382 261.041 86.6715 261.732 87.1382 262.236C87.6142 262.731 88.2442 262.978 89.0282 262.978C89.5322 262.978 89.9802 262.861 90.3722 262.628C90.7735 262.395 91.0862 262.068 91.3102 261.648C91.5342 261.219 91.6462 260.724 91.6462 260.164C91.6462 259.604 91.5342 259.109 91.3102 258.68C91.0862 258.251 90.7735 257.924 90.3722 257.7C89.9802 257.467 89.5322 257.35 89.0282 257.35ZM94.7238 254.06C94.7238 253.827 94.8031 253.64 94.9618 253.5C95.1204 253.351 95.3304 253.276 95.5918 253.276C95.8531 253.276 96.0631 253.351 96.2218 253.5C96.3804 253.64 96.4598 253.827 96.4598 254.06C96.4598 254.293 96.3804 254.485 96.2218 254.634C96.0631 254.774 95.8531 254.844 95.5918 254.844C95.3304 254.844 95.1204 254.774 94.9618 254.634C94.8031 254.485 94.7238 254.293 94.7238 254.06ZM96.2218 256.314V264H94.9478V256.314H96.2218ZM99.544 253.64V264H98.27V253.64H99.544Z" fill="#9E9E9E"/>
<rect y="177" width="350" height="44" rx="5" fill="#18181C"/>
<path d="M29.078 204H30.352V199.604H33.796V198.568H30.352V195.278H34.594V194.242H29.078V204ZM42.9367 196.328H41.6627V200.542C41.6627 202.194 40.7807 203.006 39.4647 203.006C38.1767 203.006 37.3227 202.208 37.3227 200.654V196.328H36.0627V200.822C36.0627 203.02 37.4487 204.112 39.2127 204.112C40.2347 204.112 41.1727 203.664 41.6627 202.866V204H42.9367V196.328ZM45.0878 204H46.3618V193.64H45.0878V204ZM48.5331 204H49.8071V193.64H48.5331V204ZM62.1088 194.228V201.984L56.9848 194.228H55.7108V204H56.9848V196.23L62.1088 204H63.3828V194.228H62.1088ZM65.0786 200.136C65.0786 202.516 66.6606 204.126 68.7046 204.126C70.1186 204.126 71.1126 203.398 71.5746 202.572V204H72.8626V196.328H71.5746V197.728C71.1266 196.93 70.1466 196.202 68.7186 196.202C66.6606 196.202 65.0786 197.742 65.0786 200.136ZM71.5746 200.15C71.5746 201.956 70.3706 203.006 68.9706 203.006C67.5706 203.006 66.3806 201.942 66.3806 200.136C66.3806 198.33 67.5706 197.308 68.9706 197.308C70.3706 197.308 71.5746 198.372 71.5746 200.15ZM86.0895 204H87.3495V199.478C87.3495 197.28 85.9915 196.188 84.2415 196.188C83.0655 196.188 81.9735 196.79 81.5255 197.896C81.0215 196.748 79.9715 196.188 78.7115 196.188C77.7035 196.188 76.7935 196.622 76.2895 197.434V196.328H75.0155V204H76.2895V199.772C76.2895 198.12 77.1715 197.294 78.4595 197.294C79.7195 197.294 80.5595 198.092 80.5595 199.66V204H81.8195V199.772C81.8195 198.12 82.7015 197.294 83.9895 197.294C85.2495 197.294 86.0895 198.092 86.0895 199.66V204ZM92.7013 197.28C94.0173 197.28 95.1373 198.106 95.1233 199.604H90.2793C90.4193 198.106 91.4553 197.28 92.7013 197.28ZM96.2853 201.634H94.9133C94.6333 202.46 93.9053 203.048 92.7573 203.048C91.4553 203.048 90.3633 202.194 90.2653 200.64H96.3973C96.4253 200.374 96.4393 200.15 96.4393 199.87C96.4393 197.77 94.9833 196.202 92.7573 196.202C90.5173 196.202 88.9633 197.728 88.9633 200.15C88.9633 202.586 90.5733 204.126 92.7573 204.126C94.6613 204.126 95.8933 203.034 96.2853 201.634Z" fill="#9E9E9E"/>
<rect y="297" width="350" height="44" rx="5" fill="#18181C"/>
<path d="M30.352 318.876V315.292H32.228C33.684 315.292 34.3 315.964 34.3 317.098C34.3 318.19 33.684 318.876 32.228 318.876H30.352ZM35.602 317.098C35.602 315.502 34.524 314.242 32.228 314.242H29.078V324H30.352V319.926H32.228C34.65 319.926 35.602 318.582 35.602 317.098ZM36.7094 320.136C36.7094 322.516 38.2914 324.126 40.3354 324.126C41.7494 324.126 42.7434 323.398 43.2054 322.572V324H44.4934V316.328H43.2054V317.728C42.7574 316.93 41.7774 316.202 40.3494 316.202C38.2914 316.202 36.7094 317.742 36.7094 320.136ZM43.2054 320.15C43.2054 321.956 42.0014 323.006 40.6014 323.006C39.2014 323.006 38.0114 321.942 38.0114 320.136C38.0114 318.33 39.2014 317.308 40.6014 317.308C42.0014 317.308 43.2054 318.372 43.2054 320.15ZM52.1624 321.914C52.1064 319.17 47.6544 320.164 47.6544 318.344C47.6544 317.728 48.2144 317.28 49.1524 317.28C50.1744 317.28 50.7624 317.84 50.8184 318.61H52.0924C52.0084 317.112 50.8884 316.202 49.1944 316.202C47.4864 316.202 46.3804 317.168 46.3804 318.344C46.3804 321.2 50.9164 320.206 50.9164 321.914C50.9164 322.544 50.3564 323.048 49.3484 323.048C48.2704 323.048 47.6124 322.488 47.5424 321.746H46.2264C46.3104 323.146 47.5704 324.126 49.3624 324.126C51.0564 324.126 52.1624 323.174 52.1624 321.914ZM59.4768 321.914C59.4208 319.17 54.9688 320.164 54.9688 318.344C54.9688 317.728 55.5288 317.28 56.4668 317.28C57.4888 317.28 58.0768 317.84 58.1328 318.61H59.4068C59.3228 317.112 58.2028 316.202 56.5088 316.202C54.8008 316.202 53.6948 317.168 53.6948 318.344C53.6948 321.2 58.2308 320.206 58.2308 321.914C58.2308 322.544 57.6708 323.048 56.6628 323.048C55.5848 323.048 54.9268 322.488 54.8568 321.746H53.5408C53.6248 323.146 54.8848 324.126 56.6768 324.126C58.3708 324.126 59.4768 323.174 59.4768 321.914ZM62.7733 324H64.0893L65.9373 317.91L67.7853 324H69.1013L71.4953 316.328H70.2353L68.4993 322.782L66.6373 316.328H65.3353L63.4313 322.768L61.6673 316.328H60.3653L62.7733 324ZM80.0396 320.15C80.0396 317.728 78.3456 316.202 76.1616 316.202C73.9916 316.202 72.2836 317.728 72.2836 320.15C72.2836 322.586 73.9356 324.126 76.1056 324.126C78.2896 324.126 80.0396 322.586 80.0396 320.15ZM73.5856 320.15C73.5856 318.218 74.8036 317.308 76.1476 317.308C77.4636 317.308 78.7376 318.218 78.7376 320.15C78.7376 322.096 77.4356 323.006 76.1056 323.006C74.7756 323.006 73.5856 322.096 73.5856 320.15ZM82.9887 319.828C82.9887 318.05 83.9127 317.504 85.1307 317.504H85.4667V316.188C84.2487 316.188 83.4227 316.72 82.9887 317.574V316.328H81.7147V324H82.9887V319.828ZM86.4614 320.136C86.4614 322.516 88.0434 324.126 90.1014 324.126C91.5014 324.126 92.4954 323.412 92.9574 322.558V324H94.2454V313.64H92.9574V317.7C92.4254 316.818 91.3194 316.202 90.1154 316.202C88.0434 316.202 86.4614 317.742 86.4614 320.136ZM92.9574 320.15C92.9574 321.956 91.7534 323.006 90.3534 323.006C88.9534 323.006 87.7634 321.942 87.7634 320.136C87.7634 318.33 88.9534 317.308 90.3534 317.308C91.7534 317.308 92.9574 318.372 92.9574 320.15Z" fill="#9E9E9E"/>
<rect y="357" width="350" height="44" rx="5" fill="#18181C"/>
<path d="M34.3 377.112C34.3 378.204 33.67 378.988 32.228 378.988H30.352V375.292H32.228C33.684 375.292 34.3 376.006 34.3 377.112ZM29.078 374.242V384H30.352V380.01H31.892L34.216 384H35.742L33.292 379.912C34.93 379.548 35.616 378.358 35.616 377.112C35.616 375.516 34.524 374.242 32.228 374.242H29.078ZM40.8576 377.28C42.1736 377.28 43.2936 378.106 43.2796 379.604H38.4356C38.5756 378.106 39.6116 377.28 40.8576 377.28ZM44.4416 381.634H43.0696C42.7896 382.46 42.0616 383.048 40.9136 383.048C39.6116 383.048 38.5196 382.194 38.4216 380.64H44.5536C44.5816 380.374 44.5956 380.15 44.5956 379.87C44.5956 377.77 43.1396 376.202 40.9136 376.202C38.6736 376.202 37.1196 377.728 37.1196 380.15C37.1196 382.586 38.7296 384.126 40.9136 384.126C42.8176 384.126 44.0496 383.034 44.4416 381.634ZM47.5512 377.742V376.328H46.2772V387.64H47.5512V382.586C48.0272 383.37 49.0212 384.126 50.4212 384.126C52.4792 384.126 54.0612 382.516 54.0612 380.136C54.0612 377.742 52.4792 376.202 50.4212 376.202C49.0212 376.202 48.0132 376.93 47.5512 377.742ZM52.7592 380.136C52.7592 381.942 51.5692 383.006 50.1552 383.006C48.7692 383.006 47.5512 381.956 47.5512 380.15C47.5512 378.372 48.7692 377.308 50.1552 377.308C51.5692 377.308 52.7592 378.33 52.7592 380.136ZM59.0002 377.28C60.3162 377.28 61.4362 378.106 61.4222 379.604H56.5782C56.7182 378.106 57.7542 377.28 59.0002 377.28ZM62.5842 381.634H61.2122C60.9322 382.46 60.2042 383.048 59.0562 383.048C57.7542 383.048 56.6622 382.194 56.5642 380.64H62.6962C62.7242 380.374 62.7382 380.15 62.7382 379.87C62.7382 377.77 61.2822 376.202 59.0562 376.202C56.8162 376.202 55.2622 377.728 55.2622 380.15C55.2622 382.586 56.8722 384.126 59.0562 384.126C60.9602 384.126 62.1922 383.034 62.5842 381.634ZM63.9438 380.136C63.9438 382.516 65.5258 384.126 67.5698 384.126C68.9838 384.126 69.9778 383.398 70.4398 382.572V384H71.7278V376.328H70.4398V377.728C69.9918 376.93 69.0118 376.202 67.5838 376.202C65.5258 376.202 63.9438 377.742 63.9438 380.136ZM70.4398 380.15C70.4398 381.956 69.2358 383.006 67.8358 383.006C66.4358 383.006 65.2458 381.942 65.2458 380.136C65.2458 378.33 66.4358 377.308 67.8358 377.308C69.2358 377.308 70.4398 378.372 70.4398 380.15ZM74.1607 381.9C74.1607 383.44 74.9307 384 76.2887 384H77.4367V382.922H76.4987C75.7147 382.922 75.4347 382.656 75.4347 381.9V377.378H77.4367V376.328H75.4347V374.396H74.1607V376.328H73.1667V377.378H74.1607V381.9ZM83.9868 378.876V375.292H85.8628C87.3188 375.292 87.9348 375.964 87.9348 377.098C87.9348 378.19 87.3188 378.876 85.8628 378.876H83.9868ZM89.2368 377.098C89.2368 375.502 88.1588 374.242 85.8628 374.242H82.7128V384H83.9868V379.926H85.8628C88.2848 379.926 89.2368 378.582 89.2368 377.098ZM90.3442 380.136C90.3442 382.516 91.9262 384.126 93.9702 384.126C95.3842 384.126 96.3782 383.398 96.8402 382.572V384H98.1282V376.328H96.8402V377.728C96.3922 376.93 95.4122 376.202 93.9842 376.202C91.9262 376.202 90.3442 377.742 90.3442 380.136ZM96.8402 380.15C96.8402 381.956 95.6362 383.006 94.2362 383.006C92.8362 383.006 91.6462 381.942 91.6462 380.136C91.6462 378.33 92.8362 377.308 94.2362 377.308C95.6362 377.308 96.8402 378.372 96.8402 380.15ZM105.797 381.914C105.741 379.17 101.289 380.164 101.289 378.344C101.289 377.728 101.849 377.28 102.787 377.28C103.809 377.28 104.397 377.84 104.453 378.61H105.727C105.643 377.112 104.523 376.202 102.829 376.202C101.121 376.202 100.015 377.168 100.015 378.344C100.015 381.2 104.551 380.206 104.551 381.914C104.551 382.544 103.991 383.048 102.983 383.048C101.905 383.048 101.247 382.488 101.177 381.746H99.8611C99.9451 383.146 101.205 384.126 102.997 384.126C104.691 384.126 105.797 383.174 105.797 381.914ZM113.112 381.914C113.056 379.17 108.604 380.164 108.604 378.344C108.604 377.728 109.164 377.28 110.102 377.28C111.124 377.28 111.712 377.84 111.768 378.61H113.042C112.958 377.112 111.838 376.202 110.144 376.202C108.436 376.202 107.33 377.168 107.33 378.344C107.33 381.2 111.866 380.206 111.866 381.914C111.866 382.544 111.306 383.048 110.298 383.048C109.22 383.048 108.562 382.488 108.492 381.746H107.176C107.26 383.146 108.52 384.126 110.312 384.126C112.006 384.126 113.112 383.174 113.112 381.914ZM116.408 384H117.724L119.572 377.91L121.42 384H122.736L125.13 376.328H123.87L122.134 382.782L120.272 376.328H118.97L117.066 382.768L115.302 376.328H114L116.408 384ZM133.674 380.15C133.674 377.728 131.98 376.202 129.796 376.202C127.626 376.202 125.918 377.728 125.918 380.15C125.918 382.586 127.57 384.126 129.74 384.126C131.924 384.126 133.674 382.586 133.674 380.15ZM127.22 380.15C127.22 378.218 128.438 377.308 129.782 377.308C131.098 377.308 132.372 378.218 132.372 380.15C132.372 382.096 131.07 383.006 129.74 383.006C128.41 383.006 127.22 382.096 127.22 380.15ZM136.623 379.828C136.623 378.05 137.547 377.504 138.765 377.504H139.101V376.188C137.883 376.188 137.057 376.72 136.623 377.574V376.328H135.349V384H136.623V379.828ZM140.096 380.136C140.096 382.516 141.678 384.126 143.736 384.126C145.136 384.126 146.13 383.412 146.592 382.558V384H147.88V373.64H146.592V377.7C146.06 376.818 144.954 376.202 143.75 376.202C141.678 376.202 140.096 377.742 140.096 380.136ZM146.592 380.15C146.592 381.956 145.388 383.006 143.988 383.006C142.588 383.006 141.398 381.942 141.398 380.136C141.398 378.33 142.588 377.308 143.988 377.308C145.388 377.308 146.592 378.372 146.592 380.15Z" fill="#9E9E9E"/>
<rect y="417" width="139" height="44" rx="5" fill="url(#paint0_linear_434_251)"/>
<path d="M35.42 441.34C35.42 437.728 30.156 439.296 30.156 436.776C30.156 435.726 30.982 435.18 32.032 435.208C33.222 435.222 33.838 435.964 33.922 436.622H35.322C35.168 435.138 33.95 434.116 32.088 434.116C30.156 434.116 28.854 435.208 28.854 436.818C28.854 440.444 34.132 438.764 34.132 441.396C34.132 442.32 33.404 443.02 32.172 443.02C30.814 443.02 30.24 442.208 30.156 441.396H28.798C28.826 443.006 30.212 444.098 32.172 444.098C34.286 444.098 35.42 442.726 35.42 441.34ZM37.2948 444H38.5688V436.328H37.2948V444ZM37.9528 435.082C38.4148 435.082 38.7928 434.704 38.7928 434.214C38.7928 433.724 38.4148 433.346 37.9528 433.346C37.4628 433.346 37.0848 433.724 37.0848 434.214C37.0848 434.704 37.4628 435.082 37.9528 435.082ZM40.2641 440.136C40.2641 442.516 41.8461 444.126 43.9041 444.126C45.3041 444.126 46.2981 443.384 46.7601 442.558V444.168C46.7601 445.806 45.7381 446.674 44.3801 446.674C43.1201 446.674 42.2101 446.044 41.9301 445.12H40.6701C40.9221 446.758 42.3641 447.78 44.3801 447.78C46.6341 447.78 48.0481 446.282 48.0481 444.168V436.328H46.7601V437.728C46.3121 436.902 45.3041 436.202 43.9041 436.202C41.8461 436.202 40.2641 437.742 40.2641 440.136ZM46.7601 440.15C46.7601 441.956 45.5561 443.006 44.1561 443.006C42.7561 443.006 41.5661 441.942 41.5661 440.136C41.5661 438.33 42.7561 437.308 44.1561 437.308C45.5561 437.308 46.7601 438.372 46.7601 440.15ZM55.815 444H57.075V439.478C57.075 437.28 55.717 436.188 53.939 436.188C52.903 436.188 51.979 436.622 51.475 437.42V436.328H50.201V444H51.475V439.758C51.475 438.106 52.371 437.294 53.673 437.294C54.961 437.294 55.815 438.092 55.815 439.66V444ZM65.9601 436.328H64.6861V440.542C64.6861 442.194 63.8041 443.006 62.4881 443.006C61.2001 443.006 60.3461 442.208 60.3461 440.654V436.328H59.0861V440.822C59.0861 443.02 60.4721 444.112 62.2361 444.112C63.2581 444.112 64.1961 443.664 64.6861 442.866V444H65.9601V436.328ZM69.3852 437.742V436.328H68.1112V447.64H69.3852V442.586C69.8612 443.37 70.8552 444.126 72.2552 444.126C74.3132 444.126 75.8952 442.516 75.8952 440.136C75.8952 437.742 74.3132 436.202 72.2552 436.202C70.8552 436.202 69.8472 436.93 69.3852 437.742ZM74.5932 440.136C74.5932 441.942 73.4032 443.006 71.9892 443.006C70.6032 443.006 69.3852 441.956 69.3852 440.15C69.3852 438.372 70.6032 437.308 71.9892 437.308C73.4032 437.308 74.5932 438.33 74.5932 440.136ZM87.7026 434.228V441.984L82.5786 434.228H81.3046V444H82.5786V436.23L87.7026 444H88.9766V434.228H87.7026ZM98.4283 440.15C98.4283 437.728 96.7343 436.202 94.5503 436.202C92.3803 436.202 90.6723 437.728 90.6723 440.15C90.6723 442.586 92.3243 444.126 94.4943 444.126C96.6783 444.126 98.4283 442.586 98.4283 440.15ZM91.9743 440.15C91.9743 438.218 93.1923 437.308 94.5363 437.308C95.8523 437.308 97.1263 438.218 97.1263 440.15C97.1263 442.096 95.8243 443.006 94.4943 443.006C93.1643 443.006 91.9743 442.096 91.9743 440.15ZM101.601 444H102.917L104.765 437.91L106.613 444H107.929L110.323 436.328H109.063L107.327 442.782L105.465 436.328H104.163L102.259 442.768L100.495 436.328H99.1934L101.601 444Z" fill="white"/>
<rect y="500" width="168" height="51" rx="5" fill="#18181C"/>
<g clip-path="url(#clip0_434_251)">
<path d="M18.0973 527.899L17.2967 530.888L14.3705 530.95C13.496 529.328 13 527.472 13 525.5C13 523.593 13.4638 521.795 14.2858 520.211H14.2865L16.8916 520.689L18.0328 523.278C17.7939 523.975 17.6637 524.722 17.6637 525.5C17.6638 526.344 17.8167 527.153 18.0973 527.899Z" fill="#FBBB00"/>
<path d="M35.7992 523.352C35.9312 524.047 36.0001 524.766 36.0001 525.5C36.0001 526.323 35.9135 527.126 35.7486 527.901C35.1888 530.537 33.726 532.839 31.6996 534.468L31.699 534.468L28.4177 534.3L27.9533 531.401C29.2979 530.612 30.3488 529.378 30.9023 527.901H24.7529V523.352H30.992H35.7992Z" fill="#518EF8"/>
<path d="M31.6989 534.468L31.6996 534.468C29.7288 536.052 27.2253 537 24.5001 537C20.1206 537 16.313 534.552 14.3706 530.95L18.0974 527.899C19.0685 530.491 21.5688 532.336 24.5001 532.336C25.76 532.336 26.9404 531.996 27.9532 531.401L31.6989 534.468Z" fill="#28B446"/>
<path d="M31.8402 516.648L28.1147 519.698C27.0665 519.042 25.8273 518.664 24.4998 518.664C21.5022 518.664 18.9551 520.593 18.0326 523.278L14.2863 520.211H14.2856C16.1996 516.521 20.0552 514 24.4998 514C27.2901 514 29.8486 514.994 31.8402 516.648Z" fill="#F14336"/>
</g>
<path d="M62.502 527.13C59.758 527.13 57.602 529.188 57.602 532.114C57.602 535.04 59.758 537.084 62.502 537.084C65.148 537.084 67.066 535.138 67.29 532.716V531.736H62.04V532.772H65.932C65.736 534.704 64.42 535.936 62.502 535.936C60.444 535.936 58.904 534.452 58.904 532.114C58.904 529.762 60.444 528.278 62.502 528.278C63.874 528.278 64.938 528.936 65.47 530.07H66.996C66.268 528.194 64.56 527.13 62.502 527.13ZM76.2545 533.15C76.2545 530.728 74.5605 529.202 72.3765 529.202C70.2065 529.202 68.4985 530.728 68.4985 533.15C68.4985 535.586 70.1505 537.126 72.3205 537.126C74.5045 537.126 76.2545 535.586 76.2545 533.15ZM69.8005 533.15C69.8005 531.218 71.0185 530.308 72.3625 530.308C73.6785 530.308 74.9525 531.218 74.9525 533.15C74.9525 535.096 73.6505 536.006 72.3205 536.006C70.9905 536.006 69.8005 535.096 69.8005 533.15ZM85.2096 533.15C85.2096 530.728 83.5156 529.202 81.3316 529.202C79.1616 529.202 77.4536 530.728 77.4536 533.15C77.4536 535.586 79.1056 537.126 81.2756 537.126C83.4596 537.126 85.2096 535.586 85.2096 533.15ZM78.7556 533.15C78.7556 531.218 79.9736 530.308 81.3176 530.308C82.6336 530.308 83.9076 531.218 83.9076 533.15C83.9076 535.096 82.6056 536.006 81.2756 536.006C79.9456 536.006 78.7556 535.096 78.7556 533.15ZM86.4086 533.136C86.4086 535.516 87.9906 537.126 90.0486 537.126C91.4486 537.126 92.4426 536.384 92.9046 535.558V537.168C92.9046 538.806 91.8826 539.674 90.5246 539.674C89.2646 539.674 88.3546 539.044 88.0746 538.12H86.8146C87.0666 539.758 88.5086 540.78 90.5246 540.78C92.7786 540.78 94.1926 539.282 94.1926 537.168V529.328H92.9046V530.728C92.4566 529.902 91.4486 529.202 90.0486 529.202C87.9906 529.202 86.4086 530.742 86.4086 533.136ZM92.9046 533.15C92.9046 534.956 91.7006 536.006 90.3006 536.006C88.9006 536.006 87.7106 534.942 87.7106 533.136C87.7106 531.33 88.9006 530.308 90.3006 530.308C91.7006 530.308 92.9046 531.372 92.9046 533.15ZM96.3456 537H97.6196V526.64H96.3456V537ZM103.053 530.28C104.369 530.28 105.489 531.106 105.475 532.604H100.631C100.771 531.106 101.807 530.28 103.053 530.28ZM106.637 534.634H105.265C104.985 535.46 104.257 536.048 103.109 536.048C101.807 536.048 100.715 535.194 100.617 533.64H106.749C106.777 533.374 106.791 533.15 106.791 532.87C106.791 530.77 105.335 529.202 103.109 529.202C100.869 529.202 99.3149 530.728 99.3149 533.15C99.3149 535.586 100.925 537.126 103.109 537.126C105.013 537.126 106.245 536.034 106.637 534.634Z" fill="white"/>
<path d="M61.5 515.08C61.5 515.86 61.05 516.42 60.02 516.42H58.68V513.78H60.02C61.06 513.78 61.5 514.29 61.5 515.08ZM57.77 513.03V520H58.68V517.15H59.78L61.44 520H62.53L60.78 517.08C61.95 516.82 62.44 515.97 62.44 515.08C62.44 513.94 61.66 513.03 60.02 513.03H57.77ZM66.184 515.2C67.124 515.2 67.924 515.79 67.914 516.86H64.454C64.554 515.79 65.294 515.2 66.184 515.2ZM68.744 518.31H67.764C67.564 518.9 67.044 519.32 66.224 519.32C65.294 519.32 64.514 518.71 64.444 517.6H68.824C68.844 517.41 68.854 517.25 68.854 517.05C68.854 515.55 67.814 514.43 66.224 514.43C64.624 514.43 63.514 515.52 63.514 517.25C63.514 518.99 64.664 520.09 66.224 520.09C67.584 520.09 68.464 519.31 68.744 518.31ZM69.7152 517.24C69.7152 518.94 70.8452 520.09 72.3152 520.09C73.3152 520.09 74.0252 519.56 74.3552 518.97V520.12C74.3552 521.29 73.6252 521.91 72.6552 521.91C71.7552 521.91 71.1052 521.46 70.9052 520.8H70.0052C70.1852 521.97 71.2152 522.7 72.6552 522.7C74.2652 522.7 75.2752 521.63 75.2752 520.12V514.52H74.3552V515.52C74.0352 514.93 73.3152 514.43 72.3152 514.43C70.8452 514.43 69.7152 515.53 69.7152 517.24ZM74.3552 517.25C74.3552 518.54 73.4952 519.29 72.4952 519.29C71.4952 519.29 70.6452 518.53 70.6452 517.24C70.6452 515.95 71.4952 515.22 72.4952 515.22C73.4952 515.22 74.3552 515.98 74.3552 517.25ZM76.813 520H77.723V514.52H76.813V520ZM77.283 513.63C77.613 513.63 77.883 513.36 77.883 513.01C77.883 512.66 77.613 512.39 77.283 512.39C76.933 512.39 76.663 512.66 76.663 513.01C76.663 513.36 76.933 513.63 77.283 513.63ZM83.2139 518.51C83.1739 516.55 79.9939 517.26 79.9939 515.96C79.9939 515.52 80.3939 515.2 81.0639 515.2C81.7939 515.2 82.2139 515.6 82.2539 516.15H83.1639C83.1039 515.08 82.3039 514.43 81.0939 514.43C79.8739 514.43 79.0839 515.12 79.0839 515.96C79.0839 518 82.3239 517.29 82.3239 518.51C82.3239 518.96 81.9239 519.32 81.2039 519.32C80.4339 519.32 79.9639 518.92 79.9139 518.39H78.9739C79.0339 519.39 79.9339 520.09 81.2139 520.09C82.4239 520.09 83.2139 519.41 83.2139 518.51ZM84.6985 518.5C84.6985 519.6 85.2485 520 86.2185 520H87.0385V519.23H86.3685C85.8085 519.23 85.6085 519.04 85.6085 518.5V515.27H87.0385V514.52H85.6085V513.14H84.6985V514.52H83.9885V515.27H84.6985V518.5ZM90.4711 515.2C91.4111 515.2 92.2111 515.79 92.2011 516.86H88.7411C88.8411 515.79 89.5811 515.2 90.4711 515.2ZM93.0311 518.31H92.0511C91.8511 518.9 91.3311 519.32 90.5111 519.32C89.5811 519.32 88.8011 518.71 88.7311 517.6H93.1111C93.1311 517.41 93.1411 517.25 93.1411 517.05C93.1411 515.55 92.1011 514.43 90.5111 514.43C88.9111 514.43 87.8011 515.52 87.8011 517.25C87.8011 518.99 88.9511 520.09 90.5111 520.09C91.8711 520.09 92.7511 519.31 93.0311 518.31ZM95.2523 517.02C95.2523 515.75 95.9123 515.36 96.7823 515.36H97.0223V514.42C96.1523 514.42 95.5623 514.8 95.2523 515.41V514.52H94.3423V520H95.2523V517.02ZM101.809 520H102.749L104.069 515.65L105.389 520H106.329L108.039 514.52H107.139L105.899 519.13L104.569 514.52H103.639L102.279 519.12L101.019 514.52H100.089L101.809 520ZM108.942 520H109.852V514.52H108.942V520ZM109.412 513.63C109.742 513.63 110.012 513.36 110.012 513.01C110.012 512.66 109.742 512.39 109.412 512.39C109.062 512.39 108.792 512.66 108.792 513.01C108.792 513.36 109.062 513.63 109.412 513.63ZM111.603 518.5C111.603 519.6 112.153 520 113.123 520H113.943V519.23H113.273C112.713 519.23 112.513 519.04 112.513 518.5V515.27H113.943V514.52H112.513V513.14H111.603V514.52H110.893V515.27H111.603V518.5ZM115.045 520H115.955V516.97C115.955 515.79 116.595 515.21 117.525 515.21C118.445 515.21 119.055 515.78 119.055 516.9V520H119.955V516.77C119.955 515.2 118.985 514.42 117.765 514.42C116.995 514.42 116.315 514.73 115.955 515.31V512.6H115.045V520Z" fill="#9E9E9E"/>
<line x1="45.5" y1="512" x2="45.5" y2="540" stroke="#3D3D49"/>
<rect x="182" y="500" width="168" height="51" rx="5" fill="#18181C"/>
<path d="M239.476 528.278H242.15V537H243.424V528.278H246.084V527.242H239.476V528.278ZM249.15 537H250.466L252.314 530.91L254.162 537H255.478L257.872 529.328H256.612L254.876 535.782L253.014 529.328H251.712L249.808 535.768L248.044 529.328H246.742L249.15 537ZM259.137 537H260.411V529.328H259.137V537ZM259.795 528.082C260.257 528.082 260.635 527.704 260.635 527.214C260.635 526.724 260.257 526.346 259.795 526.346C259.305 526.346 258.927 526.724 258.927 527.214C258.927 527.704 259.305 528.082 259.795 528.082ZM262.862 534.9C262.862 536.44 263.632 537 264.99 537H266.138V535.922H265.2C264.416 535.922 264.136 535.656 264.136 534.9V530.378H266.138V529.328H264.136V527.396H262.862V529.328H261.868V530.378H262.862V534.9ZM267.962 534.9C267.962 536.44 268.732 537 270.09 537H271.238V535.922H270.3C269.516 535.922 269.236 535.656 269.236 534.9V530.378H271.238V529.328H269.236V527.396H267.962V529.328H266.968V530.378H267.962V534.9ZM276.043 530.28C277.359 530.28 278.479 531.106 278.465 532.604H273.621C273.761 531.106 274.797 530.28 276.043 530.28ZM279.627 534.634H278.255C277.975 535.46 277.247 536.048 276.099 536.048C274.797 536.048 273.705 535.194 273.607 533.64H279.739C279.767 533.374 279.781 533.15 279.781 532.87C279.781 530.77 278.325 529.202 276.099 529.202C273.859 529.202 272.305 530.728 272.305 533.15C272.305 535.586 273.915 537.126 276.099 537.126C278.003 537.126 279.235 536.034 279.627 534.634ZM282.737 532.828C282.737 531.05 283.661 530.504 284.879 530.504H285.215V529.188C283.997 529.188 283.171 529.72 282.737 530.574V529.328H281.463V537H282.737V532.828Z" fill="white"/>
<path d="M243.5 515.08C243.5 515.86 243.05 516.42 242.02 516.42H240.68V513.78H242.02C243.06 513.78 243.5 514.29 243.5 515.08ZM239.77 513.03V520H240.68V517.15H241.78L243.44 520H244.53L242.78 517.08C243.95 516.82 244.44 515.97 244.44 515.08C244.44 513.94 243.66 513.03 242.02 513.03H239.77ZM248.184 515.2C249.124 515.2 249.924 515.79 249.914 516.86H246.454C246.554 515.79 247.294 515.2 248.184 515.2ZM250.744 518.31H249.764C249.564 518.9 249.044 519.32 248.224 519.32C247.294 519.32 246.514 518.71 246.444 517.6H250.824C250.844 517.41 250.854 517.25 250.854 517.05C250.854 515.55 249.814 514.43 248.224 514.43C246.624 514.43 245.514 515.52 245.514 517.25C245.514 518.99 246.664 520.09 248.224 520.09C249.584 520.09 250.464 519.31 250.744 518.31ZM251.715 517.24C251.715 518.94 252.845 520.09 254.315 520.09C255.315 520.09 256.025 519.56 256.355 518.97V520.12C256.355 521.29 255.625 521.91 254.655 521.91C253.755 521.91 253.105 521.46 252.905 520.8H252.005C252.185 521.97 253.215 522.7 254.655 522.7C256.265 522.7 257.275 521.63 257.275 520.12V514.52H256.355V515.52C256.035 514.93 255.315 514.43 254.315 514.43C252.845 514.43 251.715 515.53 251.715 517.24ZM256.355 517.25C256.355 518.54 255.495 519.29 254.495 519.29C253.495 519.29 252.645 518.53 252.645 517.24C252.645 515.95 253.495 515.22 254.495 515.22C255.495 515.22 256.355 515.98 256.355 517.25ZM258.813 520H259.723V514.52H258.813V520ZM259.283 513.63C259.613 513.63 259.883 513.36 259.883 513.01C259.883 512.66 259.613 512.39 259.283 512.39C258.933 512.39 258.663 512.66 258.663 513.01C258.663 513.36 258.933 513.63 259.283 513.63ZM265.214 518.51C265.174 516.55 261.994 517.26 261.994 515.96C261.994 515.52 262.394 515.2 263.064 515.2C263.794 515.2 264.214 515.6 264.254 516.15H265.164C265.104 515.08 264.304 514.43 263.094 514.43C261.874 514.43 261.084 515.12 261.084 515.96C261.084 518 264.324 517.29 264.324 518.51C264.324 518.96 263.924 519.32 263.204 519.32C262.434 519.32 261.964 518.92 261.914 518.39H260.974C261.034 519.39 261.934 520.09 263.214 520.09C264.424 520.09 265.214 519.41 265.214 518.51ZM266.699 518.5C266.699 519.6 267.249 520 268.219 520H269.039V519.23H268.369C267.809 519.23 267.609 519.04 267.609 518.5V515.27H269.039V514.52H267.609V513.14H266.699V514.52H265.989V515.27H266.699V518.5ZM272.471 515.2C273.411 515.2 274.211 515.79 274.201 516.86H270.741C270.841 515.79 271.581 515.2 272.471 515.2ZM275.031 518.31H274.051C273.851 518.9 273.331 519.32 272.511 519.32C271.581 519.32 270.801 518.71 270.731 517.6H275.111C275.131 517.41 275.141 517.25 275.141 517.05C275.141 515.55 274.101 514.43 272.511 514.43C270.911 514.43 269.801 515.52 269.801 517.25C269.801 518.99 270.951 520.09 272.511 520.09C273.871 520.09 274.751 519.31 275.031 518.31ZM277.252 517.02C277.252 515.75 277.912 515.36 278.782 515.36H279.022V514.42C278.152 514.42 277.562 514.8 277.252 515.41V514.52H276.342V520H277.252V517.02ZM283.809 520H284.749L286.069 515.65L287.389 520H288.329L290.039 514.52H289.139L287.899 519.13L286.569 514.52H285.639L284.279 519.12L283.019 514.52H282.089L283.809 520ZM290.942 520H291.852V514.52H290.942V520ZM291.412 513.63C291.742 513.63 292.012 513.36 292.012 513.01C292.012 512.66 291.742 512.39 291.412 512.39C291.062 512.39 290.792 512.66 290.792 513.01C290.792 513.36 291.062 513.63 291.412 513.63ZM293.603 518.5C293.603 519.6 294.153 520 295.123 520H295.943V519.23H295.273C294.713 519.23 294.513 519.04 294.513 518.5V515.27H295.943V514.52H294.513V513.14H293.603V514.52H292.893V515.27H293.603V518.5ZM297.045 520H297.955V516.97C297.955 515.79 298.595 515.21 299.525 515.21C300.445 515.21 301.055 515.78 301.055 516.9V520H301.955V516.77C301.955 515.2 300.985 514.42 299.765 514.42C298.995 514.42 298.315 514.73 297.955 515.31V512.6H297.045V520Z" fill="#9E9E9E"/>
<line x1="227.5" y1="512" x2="227.5" y2="540" stroke="#3D3D49"/>
<path d="M217 519.131C216.182 519.492 215.31 519.732 214.401 519.848C215.336 519.286 216.05 518.403 216.385 517.338C215.514 517.861 214.551 518.231 213.525 518.437C212.698 517.55 211.518 517 210.231 517C207.734 517 205.724 519.041 205.724 521.543C205.724 521.903 205.754 522.249 205.828 522.579C202.078 522.394 198.761 520.585 196.532 517.828C196.143 518.508 195.914 519.286 195.914 520.124C195.914 521.697 196.719 523.091 197.918 523.898C197.193 523.884 196.482 523.672 195.88 523.339C195.88 523.353 195.88 523.371 195.88 523.389C195.88 525.596 197.443 527.429 199.493 527.851C199.126 527.952 198.726 528.001 198.311 528.001C198.022 528.001 197.731 527.984 197.457 527.923C198.041 529.722 199.7 531.044 201.672 531.087C200.137 532.296 198.189 533.024 196.079 533.024C195.71 533.024 195.355 533.008 195 532.962C196.998 534.259 199.366 535 201.919 535C210.219 535 214.756 528.077 214.756 522.076C214.756 521.875 214.749 521.681 214.74 521.489C215.635 520.849 216.387 520.05 217 519.131Z" fill="#03A9F4"/>
<path d="M10.81 104H12.538L8.02 91.526H6.13L1.594 104H3.322L4.33 101.21H9.802L10.81 104ZM9.334 99.878H4.798L7.066 93.542L9.334 99.878ZM18.7017 99.032C18.7017 102.092 20.7357 104.162 23.3817 104.162C25.1817 104.162 26.4597 103.208 27.0537 102.146V104.216C27.0537 106.322 25.7397 107.438 23.9937 107.438C22.3737 107.438 21.2037 106.628 20.8437 105.44H19.2237C19.5477 107.546 21.4017 108.86 23.9937 108.86C26.8917 108.86 28.7097 106.934 28.7097 104.216V94.136H27.0537V95.936C26.4777 94.874 25.1817 93.974 23.3817 93.974C20.7357 93.974 18.7017 95.954 18.7017 99.032ZM27.0537 99.05C27.0537 101.372 25.5057 102.722 23.7057 102.722C21.9057 102.722 20.3757 101.354 20.3757 99.032C20.3757 96.71 21.9057 95.396 23.7057 95.396C25.5057 95.396 27.0537 96.764 27.0537 99.05ZM40.8378 99.05C40.8378 95.936 38.6598 93.974 35.8518 93.974C33.0618 93.974 30.8658 95.936 30.8658 99.05C30.8658 102.182 32.9898 104.162 35.7798 104.162C38.5878 104.162 40.8378 102.182 40.8378 99.05ZM32.5398 99.05C32.5398 96.566 34.1058 95.396 35.8338 95.396C37.5258 95.396 39.1638 96.566 39.1638 99.05C39.1638 101.552 37.4898 102.722 35.7798 102.722C34.0698 102.722 32.5398 101.552 32.5398 99.05ZM52.3515 99.05C52.3515 95.936 50.1735 93.974 47.3655 93.974C44.5755 93.974 42.3795 95.936 42.3795 99.05C42.3795 102.182 44.5035 104.162 47.2935 104.162C50.1015 104.162 52.3515 102.182 52.3515 99.05ZM44.0535 99.05C44.0535 96.566 45.6195 95.396 47.3475 95.396C49.0395 95.396 50.6775 96.566 50.6775 99.05C50.6775 101.552 49.0035 102.722 47.2935 102.722C45.5835 102.722 44.0535 101.552 44.0535 99.05ZM53.8931 99.032C53.8931 102.092 55.9271 104.162 58.5731 104.162C60.3731 104.162 61.6511 103.244 62.2451 102.146V104H63.9011V90.68H62.2451V95.9C61.5611 94.766 60.1391 93.974 58.5911 93.974C55.9271 93.974 53.8931 95.954 53.8931 99.032ZM62.2451 99.05C62.2451 101.372 60.6971 102.722 58.8971 102.722C57.0971 102.722 55.5671 101.354 55.5671 99.032C55.5671 96.71 57.0971 95.396 58.8971 95.396C60.6971 95.396 62.2451 96.764 62.2451 99.05ZM70.856 99.032C70.856 102.092 72.89 104.162 75.536 104.162C77.336 104.162 78.614 103.244 79.208 102.146V104H80.864V90.68H79.208V95.9C78.524 94.766 77.102 93.974 75.554 93.974C72.89 93.974 70.856 95.954 70.856 99.032ZM79.208 99.05C79.208 101.372 77.66 102.722 75.86 102.722C74.06 102.722 72.53 101.354 72.53 99.032C72.53 96.71 74.06 95.396 75.86 95.396C77.66 95.396 79.208 96.764 79.208 99.05ZM87.8261 95.36C89.5181 95.36 90.9581 96.422 90.9401 98.348H84.7121C84.8921 96.422 86.2241 95.36 87.8261 95.36ZM92.4341 100.958H90.6701C90.3101 102.02 89.3741 102.776 87.8981 102.776C86.2241 102.776 84.8201 101.678 84.6941 99.68H92.5781C92.6141 99.338 92.6321 99.05 92.6321 98.69C92.6321 95.99 90.7601 93.974 87.8981 93.974C85.0181 93.974 83.0201 95.936 83.0201 99.05C83.0201 102.182 85.0901 104.162 87.8981 104.162C90.3461 104.162 91.9301 102.758 92.4341 100.958ZM101.886 101.318C101.814 97.79 96.0902 99.068 96.0902 96.728C96.0902 95.936 96.8102 95.36 98.0162 95.36C99.3302 95.36 100.086 96.08 100.158 97.07H101.796C101.688 95.144 100.248 93.974 98.0702 93.974C95.8742 93.974 94.4522 95.216 94.4522 96.728C94.4522 100.4 100.284 99.122 100.284 101.318C100.284 102.128 99.5642 102.776 98.2682 102.776C96.8822 102.776 96.0362 102.056 95.9462 101.102H94.2542C94.3622 102.902 95.9822 104.162 98.2862 104.162C100.464 104.162 101.886 102.938 101.886 101.318ZM104.199 104H105.837V94.136H104.199V104ZM105.045 92.534C105.639 92.534 106.125 92.048 106.125 91.418C106.125 90.788 105.639 90.302 105.045 90.302C104.415 90.302 103.929 90.788 103.929 91.418C103.929 92.048 104.415 92.534 105.045 92.534ZM108.016 99.032C108.016 102.092 110.05 104.162 112.696 104.162C114.496 104.162 115.774 103.208 116.368 102.146V104.216C116.368 106.322 115.054 107.438 113.308 107.438C111.688 107.438 110.518 106.628 110.158 105.44H108.538C108.862 107.546 110.716 108.86 113.308 108.86C116.206 108.86 118.024 106.934 118.024 104.216V94.136H116.368V95.936C115.792 94.874 114.496 93.974 112.696 93.974C110.05 93.974 108.016 95.954 108.016 99.032ZM116.368 99.05C116.368 101.372 114.82 102.722 113.02 102.722C111.22 102.722 109.69 101.354 109.69 99.032C109.69 96.71 111.22 95.396 113.02 95.396C114.82 95.396 116.368 96.764 116.368 99.05ZM128.01 104H129.63V98.186C129.63 95.36 127.884 93.956 125.598 93.956C124.266 93.956 123.078 94.514 122.43 95.54V94.136H120.792V104H122.43V98.546C122.43 96.422 123.582 95.378 125.256 95.378C126.912 95.378 128.01 96.404 128.01 98.42V104ZM137.105 104H138.743V94.136H137.105V104ZM137.951 92.534C138.545 92.534 139.031 92.048 139.031 91.418C139.031 90.788 138.545 90.302 137.951 90.302C137.321 90.302 136.835 90.788 136.835 91.418C136.835 92.048 137.321 92.534 137.951 92.534ZM148.626 101.318C148.554 97.79 142.83 99.068 142.83 96.728C142.83 95.936 143.55 95.36 144.756 95.36C146.07 95.36 146.826 96.08 146.898 97.07H148.536C148.428 95.144 146.988 93.974 144.81 93.974C142.614 93.974 141.192 95.216 141.192 96.728C141.192 100.4 147.024 99.122 147.024 101.318C147.024 102.128 146.304 102.776 145.008 102.776C143.622 102.776 142.776 102.056 142.686 101.102H140.994C141.102 102.902 142.722 104.162 145.026 104.162C147.204 104.162 148.626 102.938 148.626 101.318ZM162.956 104H164.576V98.186C164.576 95.36 162.83 93.956 160.544 93.956C159.212 93.956 158.024 94.514 157.376 95.54V94.136H155.738V104H157.376V98.546C157.376 96.422 158.528 95.378 160.202 95.378C161.858 95.378 162.956 96.404 162.956 98.42V104ZM176.611 99.05C176.611 95.936 174.433 93.974 171.625 93.974C168.835 93.974 166.639 95.936 166.639 99.05C166.639 102.182 168.763 104.162 171.553 104.162C174.361 104.162 176.611 102.182 176.611 99.05ZM168.313 99.05C168.313 96.566 169.879 95.396 171.607 95.396C173.299 95.396 174.937 96.566 174.937 99.05C174.937 101.552 173.263 102.722 171.553 102.722C169.843 102.722 168.313 101.552 168.313 99.05ZM179.125 101.3C179.125 103.28 180.115 104 181.861 104H183.337V102.614H182.131C181.123 102.614 180.763 102.272 180.763 101.3V95.486H183.337V94.136H180.763V91.652H179.125V94.136H177.847V95.486H179.125V101.3ZM199.48 99.05C199.48 95.936 197.302 93.974 194.494 93.974C191.704 93.974 189.508 95.936 189.508 99.05C189.508 102.182 191.632 104.162 194.422 104.162C197.23 104.162 199.48 102.182 199.48 99.05ZM191.182 99.05C191.182 96.566 192.748 95.396 194.476 95.396C196.168 95.396 197.806 96.566 197.806 99.05C197.806 101.552 196.132 102.722 194.422 102.722C192.712 102.722 191.182 101.552 191.182 99.05ZM208.852 104H210.472V98.186C210.472 95.36 208.726 93.956 206.44 93.956C205.108 93.956 203.92 94.514 203.272 95.54V94.136H201.634V104H203.272V98.546C203.272 96.422 204.424 95.378 206.098 95.378C207.754 95.378 208.852 96.404 208.852 98.42V104ZM213.148 104H214.786V90.68H213.148V104ZM221.321 102.128L218.225 94.136H216.407L220.385 103.892L218.441 108.644H220.133L226.073 94.136H224.381L221.321 102.128ZM231.907 99.032C231.907 102.092 233.941 104.162 236.569 104.162C238.387 104.162 239.665 103.226 240.259 102.164V104H241.915V94.136H240.259V95.936C239.683 94.91 238.423 93.974 236.587 93.974C233.941 93.974 231.907 95.954 231.907 99.032ZM240.259 99.05C240.259 101.372 238.711 102.722 236.911 102.722C235.111 102.722 233.581 101.354 233.581 99.032C233.581 96.71 235.111 95.396 236.911 95.396C238.711 95.396 240.259 96.764 240.259 99.05ZM248.877 95.36C250.569 95.36 252.009 96.422 251.991 98.348H245.763C245.943 96.422 247.275 95.36 248.877 95.36ZM253.485 100.958H251.721C251.361 102.02 250.425 102.776 248.949 102.776C247.275 102.776 245.871 101.678 245.745 99.68H253.629C253.665 99.338 253.683 99.05 253.683 98.69C253.683 95.99 251.811 93.974 248.949 93.974C246.069 93.974 244.071 95.936 244.071 99.05C244.071 102.182 246.141 104.162 248.949 104.162C251.397 104.162 252.981 102.758 253.485 100.958ZM262.937 101.318C262.865 97.79 257.141 99.068 257.141 96.728C257.141 95.936 257.861 95.36 259.067 95.36C260.381 95.36 261.137 96.08 261.209 97.07H262.847C262.739 95.144 261.299 93.974 259.121 93.974C256.925 93.974 255.503 95.216 255.503 96.728C255.503 100.4 261.335 99.122 261.335 101.318C261.335 102.128 260.615 102.776 259.319 102.776C257.933 102.776 257.087 102.056 256.997 101.102H255.305C255.413 102.902 257.033 104.162 259.337 104.162C261.515 104.162 262.937 102.938 262.937 101.318ZM265.609 101.3C265.609 103.28 266.599 104 268.345 104H269.821V102.614H268.615C267.607 102.614 267.247 102.272 267.247 101.3V95.486H269.821V94.136H267.247V91.652H265.609V94.136H264.331V95.486H265.609V101.3ZM271.806 104H273.444V98.546C273.444 96.422 274.596 95.378 276.27 95.378C277.926 95.378 279.024 96.404 279.024 98.42V104H280.644V98.186C280.644 95.36 278.898 93.956 276.702 93.956C275.316 93.956 274.092 94.514 273.444 95.558V90.68H271.806V104ZM287.514 95.36C289.206 95.36 290.646 96.422 290.628 98.348H284.4C284.58 96.422 285.912 95.36 287.514 95.36ZM292.122 100.958H290.358C289.998 102.02 289.062 102.776 287.586 102.776C285.912 102.776 284.508 101.678 284.382 99.68H292.266C292.302 99.338 292.32 99.05 292.32 98.69C292.32 95.99 290.448 93.974 287.586 93.974C284.706 93.974 282.708 95.936 282.708 99.05C282.708 102.182 284.778 104.162 287.586 104.162C290.034 104.162 291.618 102.758 292.122 100.958ZM294.842 101.3C294.842 103.28 295.832 104 297.578 104H299.054V102.614H297.848C296.84 102.614 296.48 102.272 296.48 101.3V95.486H299.054V94.136H296.48V91.652H294.842V94.136H293.564V95.486H294.842V101.3ZM301.038 104H302.676V94.136H301.038V104ZM301.884 92.534C302.478 92.534 302.964 92.048 302.964 91.418C302.964 90.788 302.478 90.302 301.884 90.302C301.254 90.302 300.768 90.788 300.768 91.418C300.768 92.048 301.254 92.534 301.884 92.534ZM304.856 99.05C304.856 102.182 306.854 104.162 309.662 104.162C312.11 104.162 313.712 102.794 314.216 100.832H312.452C312.092 102.074 311.12 102.776 309.662 102.776C307.862 102.776 306.53 101.498 306.53 99.05C306.53 96.638 307.862 95.36 309.662 95.36C311.12 95.36 312.11 96.116 312.452 97.304H314.216C313.712 95.234 312.11 93.974 309.662 93.974C306.854 93.974 304.856 95.954 304.856 99.05ZM315.79 99.032C315.79 102.092 317.824 104.162 320.452 104.162C322.27 104.162 323.548 103.226 324.142 102.164V104H325.798V94.136H324.142V95.936C323.566 94.91 322.306 93.974 320.47 93.974C317.824 93.974 315.79 95.954 315.79 99.032ZM324.142 99.05C324.142 101.372 322.594 102.722 320.794 102.722C318.994 102.722 317.464 101.354 317.464 99.032C317.464 96.71 318.994 95.396 320.794 95.396C322.594 95.396 324.142 96.764 324.142 99.05ZM328.566 104H330.204V90.68H328.566V104ZM332.995 104H334.633V90.68H332.995V104ZM341.169 102.128L338.073 94.136H336.255L340.233 103.892L338.289 108.644H339.981L345.921 94.136H344.229L341.169 102.128ZM4.024 123.954V122.136H2.386V136.68H4.024V130.182C4.636 131.19 5.914 132.162 7.714 132.162C10.36 132.162 12.394 130.092 12.394 127.032C12.394 123.954 10.36 121.974 7.714 121.974C5.914 121.974 4.618 122.91 4.024 123.954ZM10.72 127.032C10.72 129.354 9.19 130.722 7.372 130.722C5.59 130.722 4.024 129.372 4.024 127.05C4.024 124.764 5.59 123.396 7.372 123.396C9.19 123.396 10.72 124.71 10.72 127.032ZM14.5501 132H16.1881V118.68H14.5501V132ZM23.1738 123.36C24.8658 123.36 26.3058 124.422 26.2878 126.348H20.0598C20.2397 124.422 21.5718 123.36 23.1738 123.36ZM27.7818 128.958H26.0178C25.6578 130.02 24.7218 130.776 23.2458 130.776C21.5718 130.776 20.1678 129.678 20.0418 127.68H27.9258C27.9618 127.338 27.9798 127.05 27.9798 126.69C27.9798 123.99 26.1078 121.974 23.2458 121.974C20.3658 121.974 18.3678 123.936 18.3678 127.05C18.3678 130.182 20.4378 132.162 23.2458 132.162C25.6938 132.162 27.2778 130.758 27.7818 128.958ZM29.5299 127.032C29.5299 130.092 31.5639 132.162 34.1919 132.162C36.0099 132.162 37.2879 131.226 37.8819 130.164V132H39.5379V122.136H37.8819V123.936C37.3059 122.91 36.0459 121.974 34.2099 121.974C31.5639 121.974 29.5299 123.954 29.5299 127.032ZM37.8819 127.05C37.8819 129.372 36.3339 130.722 34.5339 130.722C32.7339 130.722 31.2039 129.354 31.2039 127.032C31.2039 124.71 32.7339 123.396 34.5339 123.396C36.3339 123.396 37.8819 124.764 37.8819 127.05ZM49.3979 129.318C49.3259 125.79 43.6019 127.068 43.6019 124.728C43.6019 123.936 44.3219 123.36 45.5279 123.36C46.8419 123.36 47.5979 124.08 47.6699 125.07H49.3079C49.1999 123.144 47.7599 121.974 45.5819 121.974C43.3859 121.974 41.9639 123.216 41.9639 124.728C41.9639 128.4 47.7959 127.122 47.7959 129.318C47.7959 130.128 47.0759 130.776 45.7799 130.776C44.3939 130.776 43.5479 130.056 43.4579 129.102H41.7659C41.8739 130.902 43.4939 132.162 45.7979 132.162C47.9759 132.162 49.3979 130.938 49.3979 129.318ZM51.7102 132H53.3482V122.136H51.7102V132ZM52.5562 120.534C53.1502 120.534 53.6362 120.048 53.6362 119.418C53.6362 118.788 53.1502 118.302 52.5562 118.302C51.9262 118.302 51.4402 118.788 51.4402 119.418C51.4402 120.048 51.9262 120.534 52.5562 120.534ZM63.3579 132H64.9779V126.186C64.9779 123.36 63.2319 121.956 60.9459 121.956C59.6139 121.956 58.4259 122.514 57.7779 123.54V122.136H56.1399V132H57.7779V126.546C57.7779 124.422 58.9299 123.378 60.6039 123.378C62.2599 123.378 63.3579 124.404 63.3579 126.42V132ZM67.0416 127.032C67.0416 130.092 69.0756 132.162 71.7216 132.162C73.5216 132.162 74.7996 131.208 75.3936 130.146V132.216C75.3936 134.322 74.0796 135.438 72.3336 135.438C70.7136 135.438 69.5436 134.628 69.1836 133.44H67.5636C67.8876 135.546 69.7416 136.86 72.3336 136.86C75.2316 136.86 77.0496 134.934 77.0496 132.216V122.136H75.3936V123.936C74.8176 122.874 73.5216 121.974 71.7216 121.974C69.0756 121.974 67.0416 123.954 67.0416 127.032ZM75.3936 127.05C75.3936 129.372 73.8456 130.722 72.0456 130.722C70.2456 130.722 68.7156 129.354 68.7156 127.032C68.7156 124.71 70.2456 123.396 72.0456 123.396C73.8456 123.396 75.3936 124.764 75.3936 127.05ZM78.3956 134.574H79.4936L81.5096 129.732H79.7096L78.3956 134.574ZM89.8228 123.972V118.68H88.1848V132H89.8228V130.182C90.4348 131.262 91.7128 132.162 93.5128 132.162C96.1588 132.162 98.1928 130.092 98.1928 127.032C98.1928 123.954 96.1768 121.974 93.5128 121.974C91.7668 121.974 90.4528 122.874 89.8228 123.972ZM96.5188 127.032C96.5188 129.354 94.9888 130.722 93.1708 130.722C91.3888 130.722 89.8228 129.372 89.8228 127.05C89.8228 124.764 91.3888 123.396 93.1708 123.396C94.9888 123.396 96.5188 124.71 96.5188 127.032ZM109.097 122.136H107.459V127.554C107.459 129.678 106.325 130.722 104.633 130.722C102.977 130.722 101.879 129.696 101.879 127.698V122.136H100.259V127.914C100.259 130.74 102.041 132.144 104.309 132.144C105.623 132.144 106.829 131.568 107.459 130.542V132H109.097V122.136ZM112.223 129.3C112.223 131.28 113.213 132 114.959 132H116.435V130.614H115.229C114.221 130.614 113.861 130.272 113.861 129.3V123.486H116.435V122.136H113.861V119.652H112.223V122.136H110.945V123.486H112.223V129.3ZM122.606 127.032C122.606 130.092 124.64 132.162 127.268 132.162C129.086 132.162 130.364 131.226 130.958 130.164V132H132.614V122.136H130.958V123.936C130.382 122.91 129.122 121.974 127.286 121.974C124.64 121.974 122.606 123.954 122.606 127.032ZM130.958 127.05C130.958 129.372 129.41 130.722 127.61 130.722C125.81 130.722 124.28 129.354 124.28 127.032C124.28 124.71 125.81 123.396 127.61 123.396C129.41 123.396 130.958 124.764 130.958 127.05ZM135.382 132H137.02V118.68H135.382V132ZM146.904 129.318C146.832 125.79 141.108 127.068 141.108 124.728C141.108 123.936 141.828 123.36 143.034 123.36C144.348 123.36 145.104 124.08 145.176 125.07H146.814C146.706 123.144 145.266 121.974 143.088 121.974C140.892 121.974 139.47 123.216 139.47 124.728C139.47 128.4 145.302 127.122 145.302 129.318C145.302 130.128 144.582 130.776 143.286 130.776C141.9 130.776 141.054 130.056 140.964 129.102H139.272C139.38 130.902 141 132.162 143.304 132.162C145.482 132.162 146.904 130.938 146.904 129.318ZM158.576 127.05C158.576 123.936 156.398 121.974 153.59 121.974C150.8 121.974 148.604 123.936 148.604 127.05C148.604 130.182 150.728 132.162 153.518 132.162C156.326 132.162 158.576 130.182 158.576 127.05ZM150.278 127.05C150.278 124.566 151.844 123.396 153.572 123.396C155.264 123.396 156.902 124.566 156.902 127.05C156.902 129.552 155.228 130.722 153.518 130.722C151.808 130.722 150.278 129.552 150.278 127.05ZM165.835 132H167.473V123.486H169.543V122.136H167.473V121.434C167.473 120.156 167.959 119.616 169.435 119.616V118.248C166.915 118.248 165.835 119.238 165.835 121.434V122.136H164.557V123.486H165.835V132ZM180.2 122.136H178.562V127.554C178.562 129.678 177.428 130.722 175.736 130.722C174.08 130.722 172.982 129.696 172.982 127.698V122.136H171.362V127.914C171.362 130.74 173.144 132.144 175.412 132.144C176.726 132.144 177.932 131.568 178.562 130.542V132H180.2V122.136ZM190.184 132H191.804V126.186C191.804 123.36 190.058 121.956 187.772 121.956C186.44 121.956 185.252 122.514 184.604 123.54V122.136H182.966V132H184.604V126.546C184.604 124.422 185.756 123.378 187.43 123.378C189.086 123.378 190.184 124.404 190.184 126.42V132ZM193.868 127.05C193.868 130.182 195.866 132.162 198.674 132.162C201.122 132.162 202.724 130.794 203.228 128.832H201.464C201.104 130.074 200.132 130.776 198.674 130.776C196.874 130.776 195.542 129.498 195.542 127.05C195.542 124.638 196.874 123.36 198.674 123.36C200.132 123.36 201.122 124.116 201.464 125.304H203.228C202.724 123.234 201.122 121.974 198.674 121.974C195.866 121.974 193.868 123.954 193.868 127.05ZM205.773 129.3C205.773 131.28 206.763 132 208.509 132H209.985V130.614H208.779C207.771 130.614 207.411 130.272 207.411 129.3V123.486H209.985V122.136H207.411V119.652H205.773V122.136H204.495V123.486H205.773V129.3ZM211.97 132H213.608V122.136H211.97V132ZM212.816 120.534C213.41 120.534 213.896 120.048 213.896 119.418C213.896 118.788 213.41 118.302 212.816 118.302C212.186 118.302 211.7 118.788 211.7 119.418C211.7 120.048 212.186 120.534 212.816 120.534ZM225.76 127.05C225.76 123.936 223.582 121.974 220.774 121.974C217.984 121.974 215.788 123.936 215.788 127.05C215.788 130.182 217.912 132.162 220.702 132.162C223.51 132.162 225.76 130.182 225.76 127.05ZM217.462 127.05C217.462 124.566 219.028 123.396 220.756 123.396C222.448 123.396 224.086 124.566 224.086 127.05C224.086 129.552 222.412 130.722 220.702 130.722C218.992 130.722 217.462 129.552 217.462 127.05ZM235.131 132H236.751V126.186C236.751 123.36 235.005 121.956 232.719 121.956C231.387 121.956 230.199 122.514 229.551 123.54V122.136H227.913V132H229.551V126.546C229.551 124.422 230.703 123.378 232.377 123.378C234.033 123.378 235.131 124.404 235.131 126.42V132ZM238.815 127.032C238.815 130.092 240.849 132.162 243.477 132.162C245.295 132.162 246.573 131.226 247.167 130.164V132H248.823V122.136H247.167V123.936C246.591 122.91 245.331 121.974 243.495 121.974C240.849 121.974 238.815 123.954 238.815 127.032ZM247.167 127.05C247.167 129.372 245.619 130.722 243.819 130.722C242.019 130.722 240.489 129.354 240.489 127.032C240.489 124.71 242.019 123.396 243.819 123.396C245.619 123.396 247.167 124.764 247.167 127.05ZM251.591 132H253.229V118.68H251.591V132ZM257.623 130.992C257.623 130.362 257.137 129.876 256.543 129.876C255.913 129.876 255.427 130.362 255.427 130.992C255.427 131.622 255.913 132.108 256.543 132.108C257.137 132.108 257.623 131.622 257.623 130.992Z" fill="#9E9E9E"/>
<defs>
<linearGradient id="paint0_linear_434_251" x1="-3.42357e-07" y1="422" x2="141.684" y2="441.592" gradientUnits="userSpaceOnUse">
<stop stop-color="#FF9898"/>
<stop offset="1" stop-color="#8054FF"/>
</linearGradient>
<clipPath id="clip0_434_251">
<rect width="23" height="23" fill="white" transform="translate(13 514)"/>
</clipPath>
</defs>
</svg>
