<svg width="192" height="155" viewBox="0 0 192 155" fill="none" xmlns="http://www.w3.org/2000/svg">
<path d="M151 99.5C151 130.146 126.146 155 95.5 155C64.8541 155 40 130.146 40 99.5C40 68.8541 64.8541 44 95.5 44C126.146 44 151 68.8541 151 99.5Z" fill="#313139"/>
<path d="M141.742 99.5C141.742 125.038 121.038 145.742 95.5 145.742C69.9618 145.742 49.2424 125.038 49.2424 99.5C49.2424 73.9618 69.9618 53.2576 95.5 53.2576C121.038 53.2576 141.742 73.9618 141.742 99.5Z" fill="#222228"/>
<path d="M95.5001 154.575C65.1279 154.575 40.4258 129.872 40.4258 99.5001C40.4258 69.1279 65.1279 44.4258 95.5001 44.4258C125.872 44.4258 150.575 69.1279 150.575 99.5001C150.575 101.78 148.72 103.635 146.44 103.635C144.16 103.635 142.305 101.78 142.305 99.5001C142.305 73.7035 121.312 52.7105 95.5153 52.7105C69.7187 52.7105 48.7105 73.7035 48.7105 99.5001C48.7105 125.297 69.7035 146.29 95.5001 146.29C97.7803 146.29 99.6349 148.144 99.6349 150.425C99.6349 152.705 97.7803 154.559 95.5001 154.559V154.575Z" fill="url(#paint0_linear_408_1384)"/>
<circle cx="96" cy="99" r="27" fill="#313139"/>
<circle cx="96" cy="99" r="19" fill="#222228"/>
<rect width="74" height="6" rx="3" fill="#313139"/>
<rect x="82" width="24" height="6" rx="3" fill="#313139"/>
<rect x="46" y="14" width="24" height="6" rx="3" fill="#313139"/>
<rect y="14" width="36" height="6" rx="3" fill="#313139"/>
<rect x="172" width="20" height="20" rx="5" fill="#313139"/>
<defs>
<linearGradient id="paint0_linear_408_1384" x1="40.4258" y1="56.9427" x2="154.629" y2="61.9415" gradientUnits="userSpaceOnUse">
<stop stop-color="#FF9898"/>
<stop offset="1" stop-color="#8054FF"/>
</linearGradient>
</defs>
</svg>
